<?xml version="1.0" standalone="no"?>
<!DOCTYPE svg PUBLIC "-//W3C//DTD SVG 1.1//EN" "http://www.w3.org/Graphics/SVG/1.1/DTD/svg11.dtd">
<svg viewBox="0 0 1024 1024" version="1.1" xmlns="http://www.w3.org/2000/svg"
  xmlns:xlink="http://www.w3.org/1999/xlink">
  <path
    d="m677.41,253.04l-421.47,420.82c-26.11,26.07 -26.14,68.37 -0.07,94.48l0.04,0.04c26.09,26.09 68.39,26.09 94.48,0l0.04,-0.04l420.82,-421.47c25.88,-25.92 25.86,-67.9 -0.04,-93.8c-25.9,-25.89 -67.88,-25.91 -93.8,-0.03z" />
  <path transform="rotate(90 513.492 510.794)" opacity="0.4"
    d="m677.41,253.04l-421.47,420.82c-26.11,26.07 -26.14,68.37 -0.07,94.48l0.04,0.04c26.09,26.09 68.39,26.09 94.48,0l0.04,-0.04l420.82,-421.47c25.88,-25.92 25.86,-67.9 -0.04,-93.8c-25.9,-25.89 -67.88,-25.91 -93.8,-0.03z" />
</svg>