<?xml version="1.0" standalone="no"?>
<!DOCTYPE svg PUBLIC "-//W3C//DTD SVG 1.1//EN" "http://www.w3.org/Graphics/SVG/1.1/DTD/svg11.dtd"><svg
  viewBox="0 0 1024 1024" version="1.1" xmlns="http://www.w3.org/2000/svg" xmlns:xlink="http://www.w3.org/1999/xlink">
  <path
    d="M758.13 265.87H470.98c-27.35-4.69-41.02-18.37-41.02-41.02s13.68-36.33 41.02-41.02h369.2v369.19c0 27.35-13.67 41.02-41.02 41.02s-41.02-13.68-41.03-41.02V265.87zM265.87 758.13h287.15c27.35 4.69 41.02 18.37 41.02 41.02 0 22.66-13.68 36.33-41.02 41.02H183.83v-369.2c0-27.35 13.67-41.02 41.02-41.02s41.02 13.68 41.02 41.02v287.16z">
  </path>
  <path
    d="M338.67 627.32l288.65-288.65a0.996 0.996 0 0 1 1.41 0l56.6 56.6c0.39 0.39 0.39 1.02 0 1.41L396.68 685.33a0.996 0.996 0 0 1-1.41 0l-56.6-56.6a0.996 0.996 0 0 1 0-1.41z"
    opacity=".3"></path>
</svg>