<?xml version="1.0" standalone="no"?>
<!DOCTYPE svg PUBLIC "-//W3C//DTD SVG 1.1//EN" "http://www.w3.org/Graphics/SVG/1.1/DTD/svg11.dtd">
<svg viewBox="0 0 1024 1024" version="1.1" xmlns="http://www.w3.org/2000/svg"
  xmlns:xlink="http://www.w3.org/1999/xlink">
  <path
    d="M429.96 594.04H224.85c-27.35-4.69-41.02-18.37-41.02-41.02 0-22.66 13.67-36.33 41.02-41.02H512v287.15c0 27.35-13.67 41.02-41.02 41.02s-41.02-13.68-41.02-41.02V594.04z m205.11-205.11h205.11c27.35 4.69 41.02 18.37 41.02 41.02s-13.68 36.33-41.02 41.02H553.02V183.83c0-27.35 13.67-41.02 41.02-41.02s41.02 13.67 41.02 41.02l0.01 205.1z">
  </path>
  <path
    d="M178.85 787.14l116.03-116.03c16.02-16.02 42-16.02 58.02 0 16.02 16.02 16.02 42 0 58.02L236.86 845.15c-16.02 16.02-41.99 16.02-58.01 0s-16.02-41.99 0-58.01z m533.28-533.28l116.03-116.03c16.02-16.02 41.99-16.02 58.01 0 16.02 16.02 16.02 41.99 0 58.01L770.15 311.87c-16.02 16.02-41.99 16.02-58.01 0-16.02-16.02-16.02-41.99-0.01-58.01z"
    opacity=".3"></path>
</svg>