<?xml version="1.0" standalone="no"?>
<!DOCTYPE svg PUBLIC "-//W3C//DTD SVG 1.1//EN" "http://www.w3.org/Graphics/SVG/1.1/DTD/svg11.dtd">
<svg viewBox="0 0 1024 1024" version="1.1" xmlns="http://www.w3.org/2000/svg"
  xmlns:xlink="http://www.w3.org/1999/xlink">
  <path d="M265.87 142.8h492.26l82.04 143.58H183.83l82.04-143.58z" opacity=".3">
  </path>
  <path
    d="M265.87 224.85h492.26c45.31 0 82.04 36.73 82.04 82.04v492.26c0 45.31-36.73 82.04-82.04 82.05H265.87c-45.31 0-82.04-36.73-82.04-82.04V306.89c0-45.31 36.73-82.04 82.04-82.04z m123.06 164.08c-22.66 0.11-40.93 18.57-40.82 41.22 0.11 22.5 18.32 40.71 40.82 40.82h246.13c22.66-0.11 40.93-18.57 40.82-41.22-0.11-22.5-18.32-40.71-40.82-40.82H388.93z">
  </path>
</svg>