<?xml version="1.0" standalone="no"?><!DOCTYPE svg PUBLIC "-//W3C//DTD SVG 1.1//EN" "http://www.w3.org/Graphics/SVG/1.1/DTD/svg11.dtd"><svg t="1742745112586" class="icon" viewBox="0 0 1024 1024" version="1.1" xmlns="http://www.w3.org/2000/svg" p-id="28325" xmlns:xlink="http://www.w3.org/1999/xlink" width="200" height="200"><path d="M572.3 512l311.2-311.2c16.7-16.7 16.7-43.7 0-60.3-16.7-16.7-43.7-16.7-60.3 0L512 451.7 200.8 140.5c-16.7-16.7-43.7-16.7-60.3 0s-16.7 43.7 0 60.3L451.7 512 140.5 823.2c-16.7 16.7-16.7 43.7 0 60.3 8.3 8.3 19.2 12.5 30.2 12.5s21.8-4.2 30.2-12.5L512 572.3l311.2 311.2c8.3 8.3 19.2 12.5 30.2 12.5 10.9 0 21.8-4.2 30.2-12.5 16.7-16.7 16.7-43.7 0-60.3L572.3 512z" p-id="28326"></path></svg>