<?xml version="1.0" standalone="no"?><!DOCTYPE svg PUBLIC "-//W3C//DTD SVG 1.1//EN" "http://www.w3.org/Graphics/SVG/1.1/DTD/svg11.dtd"><svg t="1742658404376" class="icon" viewBox="0 0 1024 1024" version="1.1" xmlns="http://www.w3.org/2000/svg" p-id="15095" xmlns:xlink="http://www.w3.org/1999/xlink" width="200" height="200"><path d="M768 256c0-70.6-57.4-128-128-128H256c-70.6 0-128 57.4-128 128v341.3c0 81 56.8 148.7 132.6 166C278 839.2 345.7 896 426.7 896H768c70.6 0 128-57.4 128-128V384c0-70.6-57.4-128-128-128zM213.3 597.3V256c0-23.5 19.1-42.7 42.7-42.7h384c23.5 0 42.7 19.1 42.7 42.7H384c-70.6 0-128 57.4-128 128v286.8c-25.4-14.8-42.7-42-42.7-73.5z m469.4-256V640c0 23.5-19.1 42.7-42.7 42.7H341.3V384c0-23.5 19.1-42.7 42.7-42.7h298.7z m128 426.7c0 23.5-19.1 42.7-42.7 42.7H426.7c-31.4 0-58.7-17.3-73.5-42.7H640c70.6 0 128-57.4 128-128V341.3c23.5 0 42.7 19.1 42.7 42.7v384z" p-id="15096"></path></svg>