<?xml version="1.0" standalone="no"?>
<!DOCTYPE svg PUBLIC "-//W3C//DTD SVG 1.1//EN" "http://www.w3.org/Graphics/SVG/1.1/DTD/svg11.dtd">
<svg viewBox="0 0 1024 1024" version="1.1" xmlns="http://www.w3.org/2000/svg"
  xmlns:xlink="http://www.w3.org/1999/xlink">
  <path
    d="M675.91 265.87H388.93c-67.97 0-123.07 55.1-123.07 123.07v286.97c-53.25-2.63-82.04-33.84-82.04-89.32V273.33c0-58.01 31.49-89.5 89.5-89.5h313.26c55.48 0 86.7 28.79 89.33 82.04z"
    opacity=".3"></path>
  <path
    d="M437.41 347.91h313.26c58.02 0 89.5 31.49 89.5 89.5v313.26c0 58.02-31.48 89.5-89.5 89.5H437.41c-58.02 0-89.5-31.48-89.5-89.5V437.41c0-58.01 31.49-89.5 89.5-89.5z">
  </path>
</svg>