<?xml version="1.0" standalone="no"?>
<!DOCTYPE svg PUBLIC "-//W3C//DTD SVG 1.1//EN" "http://www.w3.org/Graphics/SVG/1.1/DTD/svg11.dtd"><svg t="1742742605548"
  class="icon" viewBox="0 0 1024 1024" version="1.1" xmlns="http://www.w3.org/2000/svg"
  xmlns:xlink="http://www.w3.org/1999/xlink">
  <path d="M265.87 347.91v512.77c0 33.98 27.55 61.53 61.53 61.53h369.2c33.98 0 61.53-27.55 61.53-61.53V347.91H265.87z">
  </path>
  <path
    d="M594.05 204.34v-20.51c0-22.66-18.36-41.02-41.02-41.02H470.98c-22.66 0-41.02 18.36-41.02 41.02v20.51h-184.6c-11.33 0-20.51 9.18-20.51 20.51v20.51c0 11.33 9.18 20.51 20.51 20.51h533.28c11.33 0 20.51-9.18 20.51-20.51v-20.51c0-11.33-9.18-20.51-20.51-20.51H594.05z"
    opacity=".3"></path>
</svg>