<?xml version="1.0" standalone="no"?><!DOCTYPE svg PUBLIC "-//W3C//DTD SVG 1.1//EN" "http://www.w3.org/Graphics/SVG/1.1/DTD/svg11.dtd"><svg t="1742660385939" class="icon" viewBox="0 0 1024 1024" version="1.1" xmlns="http://www.w3.org/2000/svg" p-id="15854" xmlns:xlink="http://www.w3.org/1999/xlink" width="200" height="200"><path d="M853.3 448H170.7c-17.3 0-32.8-10.4-39.4-26.3-6.6-16-3-34.3 9.2-46.5l170.7-170.7c16.7-16.7 43.7-16.7 60.3 0s16.7 43.7 0 60.3l-97.8 97.8h579.7c23.6 0 42.7 19.1 42.7 42.7S876.9 448 853.3 448zM712.8 819.5l170.7-170.7c12.2-12.2 15.9-30.5 9.2-46.5-6.6-16-22.2-26.3-39.4-26.3H170.7c-23.6 0-42.7 19.1-42.7 42.7s19.1 42.7 42.7 42.7h579.7l-97.8 97.8c-16.7 16.7-16.7 43.7 0 60.3 8.3 8.3 19.2 12.5 30.2 12.5s21.7-4.2 30-12.5z" p-id="15855"></path></svg>