<?xml version="1.0" standalone="no"?><!DOCTYPE svg PUBLIC "-//W3C//DTD SVG 1.1//EN" "http://www.w3.org/Graphics/SVG/1.1/DTD/svg11.dtd"><svg t="1742658421609" class="icon" viewBox="0 0 1024 1024" version="1.1" xmlns="http://www.w3.org/2000/svg" p-id="15246" xmlns:xlink="http://www.w3.org/1999/xlink" width="200" height="200"><path d="M937.8 503.5c-27.8-136.8-119.3-248-239.7-305.3l23.5-52.8c9.5-21.5-0.1-46.8-21.7-56.3-21.5-9.6-46.8 0.1-56.3 21.6l-26 58.5c-34-8.6-69.4-13.4-105.7-13.4C306.1 155.8 127 302 86.1 503.5l-1.7 8.5 1.7 8.5c27.8 136.8 119.3 248 239.7 305.3l-23.5 52.8c-9.6 21.5 0.1 46.8 21.6 56.3 5.6 2.5 11.5 3.7 17.3 3.7 16.3 0 31.9-9.5 39-25.3l26-58.5c34 8.6 69.4 13.4 105.7 13.4 205.9 0 385-146.2 425.8-347.7l1.7-8.5-1.6-8.5zM171.6 512C207.7 354.6 349.5 241.2 512 241.2c24 0 47.5 2.8 70.3 7.5l-42.4 95.5c-9.1-1.5-18.3-2.8-27.9-2.8-94.1 0-170.7 76.6-170.7 170.7 0 54 25.7 101.6 64.9 132.9l-45.7 102.9C267.3 702.7 195.8 617.3 171.6 512z m425.7 0c0 43.9-33.5 79.8-76.2 84.4l59.7-134.3c10.3 14.1 16.5 31.2 16.5 49.9z m-170.6 0c0-43.9 33.5-79.8 76.2-84.4l-59.7 134.3c-10.3-14-16.5-31.2-16.5-49.9zM512 782.8c-24 0-47.5-2.8-70.4-7.5l42.4-95.5c9.1 1.5 18.4 2.8 27.9 2.8 94.1 0 170.7-76.5 170.7-170.7 0-54-25.7-101.6-64.9-132.9l45.7-102.9c93.2 45.2 164.7 130.5 188.8 235.8C816.3 669.5 674.5 782.8 512 782.8z" p-id="15247"></path></svg>