<?xml version="1.0" standalone="no"?>
<!DOCTYPE svg PUBLIC "-//W3C//DTD SVG 1.1//EN" "http://www.w3.org/Graphics/SVG/1.1/DTD/svg11.dtd">
<svg viewBox="0 0 1024 1024" version="1.1" xmlns="http://www.w3.org/2000/svg"
  xmlns:xlink="http://www.w3.org/1999/xlink">
  <path
    d="M561.51 183.83a225.766 225.766 0 0 0-8.49 61.53c0 124.61 101.01 225.62 225.62 225.62 20.8 0.02 41.51-2.84 61.53-8.49v254.62c0 67.97-55.1 123.06-123.06 123.06H306.89c-67.97 0-123.06-55.1-123.07-123.06V306.89c0-67.97 55.1-123.07 123.07-123.07h254.62z">
  </path>
  <path d="M778.64 245.36m-102.55 0a102.55 102.55 0 1 0 205.1 0 102.55 102.55 0 1 0-205.1 0Z" opacity=".3"></path>
</svg>