<?xml version="1.0" standalone="no"?><!DOCTYPE svg PUBLIC "-//W3C//DTD SVG 1.1//EN" "http://www.w3.org/Graphics/SVG/1.1/DTD/svg11.dtd"><svg t="1742660348195" class="icon" viewBox="0 0 1024 1024" version="1.1" xmlns="http://www.w3.org/2000/svg" p-id="15701" xmlns:xlink="http://www.w3.org/1999/xlink" width="200" height="200"><path d="M512 938.7C276.7 938.7 85.3 747.2 85.3 512 85.3 276.7 276.7 85.3 512 85.3c235.2 0 426.7 191.4 426.7 426.7 0 235.2-191.5 426.7-426.7 426.7z m0-768c-188.2 0-341.3 153.1-341.3 341.3S323.8 853.3 512 853.3 853.3 700.2 853.3 512 700.2 170.7 512 170.7z m42.7 170.6c0-23.6-19.1-42.7-42.7-42.7s-42.7 19.1-42.7 42.7v256h85.3v-256zM512 640c-23.6 0-42.7 19.1-42.7 42.7s19.1 42.7 42.7 42.7 42.7-19.1 42.7-42.7S535.6 640 512 640z" p-id="15702"></path></svg>