<?xml version="1.0" standalone="no"?><!DOCTYPE svg PUBLIC "-//W3C//DTD SVG 1.1//EN" "http://www.w3.org/Graphics/SVG/1.1/DTD/svg11.dtd"><svg t="1742483550166" class="icon" viewBox="0 0 1024 1024" version="1.1" xmlns="http://www.w3.org/2000/svg" p-id="22270" xmlns:xlink="http://www.w3.org/1999/xlink" width="200" height="200"><path d="M511.9 938.7c-12.4 0-24.2-5.4-32.4-14.9-6.9-8.1-170.3-198.4-215-258.4-62.4-83.8-94-164.1-94-238.8 0-110.7 54-214.9 144.5-278.9 92.2-65.2 208.5-80.2 319.4-40.9 43.2 15.3 83.5 42.9 116.3 79.7 134.3 150.7 137 316.6 7.7 479.9-51.1 64.6-207.3 249.3-214 257.1-8.1 9.5-19.9 15.1-32.4 15.1 0 0.1-0.1 0.1-0.1 0.1z m0.1-767.9c-52.9 0-104 15.8-147.7 46.6-67.9 48-108.4 126.2-108.4 209.2 0 55.9 26 119.1 77.1 187.9 31.1 41.8 127.5 155.6 178.7 215.6 49.9-59.2 143.6-170.8 179.8-216.6 103-130.1 101.6-251.3-4.4-370.2-23.3-26.1-51.4-45.5-81.1-56-31.2-11-63-16.5-94-16.5z m-0.1 405.2c-82.3 0-149.3-67-149.3-149.3s67-149.3 149.3-149.3 149.3 67 149.3 149.3S594.2 576 511.9 576z m0-213.3c-35.3 0-64 28.7-64 64s28.7 64 64 64 64-28.7 64-64-28.7-64-64-64z" p-id="22271"></path></svg>