<?xml version="1.0" standalone="no"?><!DOCTYPE svg PUBLIC "-//W3C//DTD SVG 1.1//EN" "http://www.w3.org/Graphics/SVG/1.1/DTD/svg11.dtd"><svg t="1742483869828" class="icon" viewBox="0 0 1024 1024" version="1.1" xmlns="http://www.w3.org/2000/svg" p-id="22879" xmlns:xlink="http://www.w3.org/1999/xlink" width="200" height="200"><path d="M128 384c-23.6 0-42.7-19.1-42.7-42.7v-128c0-70.6 57.4-128 128-128h128c23.6 0 42.7 19.1 42.7 42.7s-19.1 42.7-42.7 42.7h-128c-23.5 0-42.7 19.1-42.7 42.7v128c0 23.5-19.1 42.6-42.6 42.6z m810.7-42.7v-128c0-70.6-57.4-128-128-128h-128c-23.6 0-42.7 19.1-42.7 42.7s19.1 42.7 42.7 42.7h128c23.5 0 42.7 19.1 42.7 42.7v128c0 23.6 19.1 42.7 42.7 42.7 23.5-0.1 42.6-19.2 42.6-42.8z m0 469.4v-128c0-23.6-19.1-42.7-42.7-42.7s-42.7 19.1-42.7 42.7v128c0 23.5-19.1 42.7-42.7 42.7h-128c-23.6 0-42.7 19.1-42.7 42.7s19.1 42.7 42.7 42.7h128c70.7-0.1 128.1-57.5 128.1-128.1zM384 896c0-23.6-19.1-42.7-42.7-42.7h-128c-23.5 0-42.7-19.1-42.7-42.7v-128c0-23.6-19.1-42.7-42.7-42.7S85.2 659 85.2 682.6v128c0 70.6 57.4 128 128 128h128c23.7 0.1 42.8-19 42.8-42.6z" p-id="22880"></path></svg>