<?xml version="1.0" standalone="no"?><!DOCTYPE svg PUBLIC "-//W3C//DTD SVG 1.1//EN" "http://www.w3.org/Graphics/SVG/1.1/DTD/svg11.dtd"><svg t="1742483798163" class="icon" viewBox="0 0 1024 1024" version="1.1" xmlns="http://www.w3.org/2000/svg" p-id="22725" xmlns:xlink="http://www.w3.org/1999/xlink" width="200" height="200"><path d="M926.2 865.8L769.1 708.7c52.6-65.7 84.3-148.9 84.3-239.4 0-211.7-172.2-384-384-384-211.7 0-384 172.3-384 384 0 211.8 172.3 384 384 384 90.5 0 173.7-31.7 239.4-84.3l157.1 157.1c8.3 8.3 19.2 12.5 30.2 12.5 10.9 0 21.8-4.2 30.2-12.5 16.5-16.6 16.5-43.6-0.1-60.3zM469.3 768c-164.7 0-298.7-134-298.7-298.7s134-298.7 298.7-298.7S768 304.6 768 469.3 634 768 469.3 768z" p-id="22726"></path><path d="M597.3 426.7h-256c-23.6 0-42.7 19.1-42.7 42.7s19.1 42.7 42.7 42.7h256c23.6 0 42.7-19.1 42.7-42.7s-19.1-42.7-42.7-42.7z" p-id="22727"></path></svg>